<?xml version="1.0" encoding="utf-8"?>
<!-- Generator: Adobe Illustrator 14.0.0, SVG Export Plug-In . SVG Version: 6.00 Build 43363)  -->
<!DOCTYPE svg PUBLIC "-//W3C//DTD SVG 1.1//EN" "http://www.w3.org/Graphics/SVG/1.1/DTD/svg11.dtd">
<svg version="1.1" id="Layer_1" xmlns="http://www.w3.org/2000/svg" xmlns:xlink="http://www.w3.org/1999/xlink" x="0px" y="0px"
	 width="1680px" height="1000px" viewBox="0 0 1680 1000" enable-background="new 0 0 1680 1000" xml:space="preserve">
<path fill="none" stroke="#FFFFFF" stroke-width="2" d="M445.198,653.038c-4.712,0-8.532-3.82-8.532-8.532"/>
<line fill="none" stroke="#FFFFFF" stroke-width="2" x1="436.667" y1="644.506" x2="436.667" y2="542.334"/>
<line fill="none" stroke="#FFFFFF" stroke-width="2" x1="445.198" y1="653.038" x2="453.131" y2="653.038"/>
<circle fill="#FFFFFF" cx="436.667" cy="542.334" r="4.266"/>
<circle fill="none" stroke="#FFFFFF" cx="436.667" cy="542.334" r="8.532"/>
<path fill="none" stroke="#FFFFFF" stroke-width="2" d="M767.468,292.803c4.712,0,8.532,3.82,8.532,8.532"/>
<line fill="none" stroke="#FFFFFF" stroke-width="2" x1="776" y1="301.335" x2="776" y2="403.507"/>
<line fill="none" stroke="#FFFFFF" stroke-width="2" x1="767.469" y1="292.802" x2="667.334" y2="292.802"/>
<circle fill="#FFFFFF" cx="776" cy="403.507" r="4.266"/>
<circle fill="none" stroke="#FFFFFF" cx="776" cy="403.507" r="8.532"/>
<path fill="none" stroke="#FFFFFF" stroke-width="2" d="M1074.531,272.833c-4.711,0-8.531,3.82-8.531,8.532"/>
<line fill="none" stroke="#FFFFFF" stroke-width="2" x1="1066" y1="281.366" x2="1066" y2="485.538"/>
<line fill="none" stroke="#FFFFFF" stroke-width="2" x1="1074.534" y1="272.831" x2="1103.504" y2="272.831"/>
<circle fill="#FFFFFF" cx="1066" cy="485.537" r="4.266"/>
<circle fill="none" stroke="#FFFFFF" cx="1066" cy="485.537" r="8.531"/>
<path fill="none" stroke="#FFFFFF" stroke-width="2" d="M861.535,748.037c4.711,0,8.531-3.82,8.531-8.532"/>
<line fill="none" stroke="#FFFFFF" stroke-width="2" x1="870.066" y1="739.505" x2="870.066" y2="530.896"/>
<line fill="none" stroke="#FFFFFF" stroke-width="2" x1="861.535" y1="748.039" x2="831" y2="748.039"/>
<circle fill="#FFFFFF" cx="870.066" cy="530.896" r="4.266"/>
<circle fill="none" stroke="#FFFFFF" cx="870.066" cy="530.896" r="8.531"/>
<path fill="none" stroke="#FFFFFF" stroke-width="2" d="M1201.531,678.506c-4.711,0-8.531-3.82-8.531-8.532"/>
<line fill="none" stroke="#FFFFFF" stroke-width="2" x1="1193" y1="669.975" x2="1193" y2="457.1"/>
<line fill="none" stroke="#FFFFFF" stroke-width="2" x1="1201.532" y1="678.505" x2="1222.501" y2="678.505"/>
<circle fill="#FFFFFF" cx="1193" cy="457.099" r="4.266"/>
<circle fill="none" stroke="#FFFFFF" cx="1193" cy="457.099" r="8.531"/>
</svg>
