<?xml version="1.0" encoding="utf-8"?>
<!-- Generator: Adobe Illustrator 14.0.0, SVG Export Plug-In . SVG Version: 6.00 Build 43363)  -->
<!DOCTYPE svg PUBLIC "-//W3C//DTD SVG 1.1//EN" "http://www.w3.org/Graphics/SVG/1.1/DTD/svg11.dtd">
<svg version="1.1" id="Layer_1" xmlns="http://www.w3.org/2000/svg" xmlns:xlink="http://www.w3.org/1999/xlink" x="0px" y="0px"
	 width="1680px" height="1000px" viewBox="0 0 1680 1000" enable-background="new 0 0 1680 1000" xml:space="preserve">
<path fill="none" stroke="#FFFFFF" stroke-width="2" d="M679.968,370.321c4.712,0,8.532,3.82,8.532,8.532"/>
<line fill="none" stroke="#FFFFFF" stroke-width="2" x1="688.5" y1="378.853" x2="688.5" y2="481.025"/>
<line fill="none" stroke="#FFFFFF" stroke-width="2" x1="679.969" y1="370.32" x2="526.5" y2="370.32"/>
<circle fill="#FFFFFF" cx="688.5" cy="481.025" r="4.266"/>
<circle fill="none" stroke="#FFFFFF" cx="688.5" cy="481.025" r="8.532"/>
<path fill="none" stroke="#FFFFFF" stroke-width="2" d="M832.705,720.94c4.711,0,8.531-3.82,8.531-8.533"/>
<line fill="none" stroke="#FFFFFF" stroke-width="2" x1="841.236" y1="712.406" x2="841.236" y2="503.797"/>
<line fill="none" stroke="#FFFFFF" stroke-width="2" x1="832.702" y1="720.942" x2="497.5" y2="720.942"/>
<circle fill="#FFFFFF" cx="841.236" cy="503.797" r="4.266"/>
<circle fill="none" stroke="#FFFFFF" cx="841.236" cy="503.797" r="8.531"/>
<path fill="none" stroke="#FFFFFF" stroke-width="2" d="M990.563,414.495c-4.711,0-8.531,3.82-8.531,8.533"/>
<line fill="none" stroke="#FFFFFF" stroke-width="2" x1="982.031" y1="423.028" x2="982.031" y2="495.2"/>
<line fill="none" stroke="#FFFFFF" stroke-width="2" x1="990.563" y1="414.494" x2="1182.5" y2="414.494"/>
<circle fill="#FFFFFF" cx="982.031" cy="495.2" r="4.266"/>
<circle fill="none" stroke="#FFFFFF" cx="982.031" cy="495.2" r="8.531"/>
<circle fill="#FFFFFF" cx="982.031" cy="495.2" r="4.266"/>
<path fill="none" stroke="#FFFFFF" stroke-width="2" d="M964.563,626.934c-4.711,0-8.531-3.82-8.531-8.533"/>
<line fill="none" stroke="#FFFFFF" stroke-width="2" x1="956.031" y1="618.401" x2="956.031" y2="586.694"/>
<line fill="none" stroke="#FFFFFF" stroke-width="2" x1="964.563" y1="626.934" x2="1207.5" y2="626.934"/>
<circle fill="#FFFFFF" cx="956.031" cy="586.696" r="4.266"/>
<circle fill="none" stroke="#FFFFFF" cx="956.031" cy="586.696" r="8.531"/>
</svg>
